<svg xmlns="http://www.w3.org/2000/svg" width="92.926" height="95.057" viewBox="0 0 92.926 95.057"><g transform="translate(-1525.99 -3917.33)"><path d="M536.9,1284.132s4.354-17.776,3.957-23.467c0,0-.3-6.407-5.679-6.4,0,0-5.837.343-6.727,7.235,0,0-.616,12.028,5.394,22.5Z" transform="translate(1037.117 2663.06)" fill="#dd5336"/><path d="M504.015,1297.743s-5.941-12.456-8.653-15.985c0,0-4.75-7.987-9.662-4.276,0,0-5.059,3.66-.678,9.489,0,0,6.723,8.553,16.732,12.783Z" transform="translate(1064.901 2649.396)" fill="#db5090"/><path d="M475.228,1319.5s-15.122-9-22.5-11.743c0,0-9.289-3.467-11.1,4.1,0,0-1.68,6.761,8.418,8.51,0,0,14.74,1.46,25.181.482Z" transform="translate(1090.541 2630.669)" fill="#9c4790"/><path d="M484.108,1348.525s-19.136-.917-24.657,3.082c0,0-5.513,5.332-2.743,10.063,0,0,1.649,4.138,7.963,1.622,0,0,6.638-3.406,19.86-14.1Z" transform="translate(1081.688 2605.174)" fill="#2878b7"/><path d="M503.852,1352.4s-13.014,11.943-16.1,18.855c0,0-4.442,7.416,1.591,11.508,0,0,5.032,2.7,8.26-4.142a160.885,160.885,0,0,0,8.622-24.5Z" transform="translate(1063.091 2602.736)" fill="#21a5dc"/><path d="M536.895,1359.64s-5.609,19.572-3.556,24.873c0,0,1.842,8.576,7.805,6.1,0,0,4.55-.489,4.377-11.3a59.466,59.466,0,0,0-5.509-19.013Z" transform="translate(1034.379 2598.286)" fill="#1fa15d"/><path d="M556,1357.941s5.871,14.444,9.246,17.549c0,0,5.879,8.572,10.857,4.215,0,0,3.66-3.506-.478-9.081a44.306,44.306,0,0,0-17.395-13.7Z" transform="translate(1020.171 2599.958)" fill="#a3c957"/><path d="M564.5,1347.614s15.257,10.892,24.4,12.953c0,0,8.973,1.156,9.4-5.394,0,0,.925-6.549-7.917-8.476,0,0-16.27-3.209-25.863-.905Z" transform="translate(1014.946 2607.31)" fill="#f5e736"/><path d="M562.194,1318.49s17.441-.385,22.665-3.144c0,0,5.779-2.034,2.289-8.383,0,0-3.494-5.5-8.7-1.9,0,0-14.309,10.456-17.029,12.8Z" transform="translate(1016.839 2632.585)" fill="#f1c041"/><path d="M555.958,1292.839s10.352-8.4,15.569-16.536c0,0,4.3-6.126-1.541-10.31-8.3-5.964-13.041,15.542-14.386,19.687-.131.412-2.042,6.079-1.811,6.187Z" transform="translate(1021.542 2656.491)" fill="#ea8e3d"/><ellipse cx="6.719" cy="8.38" rx="6.719" ry="8.38" transform="matrix(0.349, -0.937, 0.937, 0.349, 1562.659, 3956.092)" fill="#fff"/><path d="M425.75,1463.135a6.7,6.7,0,0,1,13.126-1.726h-2.589a3.987,3.987,0,0,0-3.853-2.508,4.238,4.238,0,1,0,3.853,5.948h2.589a6.7,6.7,0,0,1-13.126-1.714Z" transform="translate(1100.24 2538.669)" fill="#636463"/><path d="M461.86,1469.658a4.868,4.868,0,0,1,5.116-5.078,4.771,4.771,0,0,1,5.039,5.058v4.654h-2.088v-1.845a3.444,3.444,0,0,1-3.356,2.107A4.668,4.668,0,0,1,461.86,1469.658Zm7.875-.1a2.829,2.829,0,1,0-2.778,2.855A2.686,2.686,0,0,0,469.735,1469.562Z" transform="translate(1078.042 2533.775)" fill="#636463"/><path d="M491.1,1468.795c0-2.855,1.688-4.215,4.157-4.215s4.138,1.36,4.138,4.238v.058h-2.258v-.1c0-1.541-.771-2.088-1.88-2.088s-1.876.555-1.876,2.088v5.5H491.1Z" transform="translate(1060.067 2533.775)" fill="#636463"/><path d="M514.83,1469.562a5.077,5.077,0,0,1,10.152,0v.805h-7.775a2.593,2.593,0,0,0,2.7,2.107,2.658,2.658,0,0,0,2.242-.9h2.435a5.111,5.111,0,0,1-9.751-2.011Zm7.74-1.017a2.793,2.793,0,0,0-5.29,0Z" transform="translate(1045.479 2533.775)" fill="#636463"/><path d="M553.22,1457.27h4.446c4.384,0,6.684,2.508,6.684,6.264s-2.312,6.264-6.684,6.264H553.22Zm4.446,10.267c2.893,0,4.2-1.568,4.2-4s-1.3-3.984-4.2-3.984h-2v7.987Z" transform="translate(1021.88 2538.269)" fill="#636463"/><path d="M583.26,1469.658a4.868,4.868,0,0,1,5.116-5.078,4.768,4.768,0,0,1,5.035,5.058v4.654h-2.088v-1.845a3.435,3.435,0,0,1-3.352,2.107A4.666,4.666,0,0,1,583.26,1469.658Zm7.875-.1a2.83,2.83,0,1,0-2.778,2.855A2.686,2.686,0,0,0,591.135,1469.562Z" transform="translate(1003.413 2533.775)" fill="#636463"/><path d="M611.408,1455.694a1.514,1.514,0,1,1,1.51,1.514,1.456,1.456,0,0,1-1.51-1.514Zm.362,2.743h2.281v9.462H611.77Z" transform="translate(986.11 2540.169)" fill="#636463"/><path d="M620.06,1471.5h2.312c.019.632.574,1.056,1.684,1.056,1.156,0,1.668-.482,1.668-1.056,0-.728-.844-.824-1.857-.959-1.456-.189-3.6-.439-3.6-2.759,0-1.926,1.476-3.2,3.753-3.2s3.737,1.3,3.795,2.97H625.55c-.058-.574-.593-.979-1.495-.979-.994,0-1.495.478-1.495,1.036,0,.728.863.84,1.88.975,1.264.173,3.583.424,3.583,2.778,0,1.926-1.541,3.182-3.968,3.182S620.118,1473.26,620.06,1471.5Z" transform="translate(980.791 2533.775)" fill="#636463"/><path d="M642.742,1475.722h2.281a2.2,2.2,0,0,0,2.277,1.283c1.541,0,2.435-.748,2.435-2.589v-1.19a3.082,3.082,0,0,1-2.816,1.591c-2.184,0-4.238-1.418-4.238-4.789v-4.808h2.281v4.808c0,1.8.955,2.662,2.393,2.662s2.4-.9,2.4-2.662v-4.808h2.281v9.162c0,3.294-2.088,4.623-4.716,4.623C645.115,1478.978,643.277,1477.965,642.742,1475.722Z" transform="translate(966.886 2533.382)" fill="#636463"/></g></svg>