<svg xmlns="http://www.w3.org/2000/svg" width="29.292" height="29.032" viewBox="0 0 29.292 29.032"><g transform="translate(0 -2.275)"><path d="M107.572,85.216V82.5a9.562,9.562,0,1,0-19.125,0v2.712a9.562,9.562,0,0,0,19.125,0Zm-9.563,7.823a7.831,7.831,0,0,1-7.822-7.823V82.5a7.758,7.758,0,0,1,.053-.884,29.321,29.321,0,0,0,9.842-2.219,22.944,22.944,0,0,0,5.723,2.513c.015.2.029.391.029.59v2.712A7.832,7.832,0,0,1,98.009,93.039Z" transform="translate(-83.387 -66.623)" fill="#e25f1b"/><path d="M27.827,12.562a13.7,13.7,0,0,0-26.551.061A2.1,2.1,0,0,0,0,14.556v5.258a2.1,2.1,0,0,0,4.206,0V14.556A2.1,2.1,0,0,0,3.05,12.689a11.969,11.969,0,0,1,23.037.083,2.1,2.1,0,0,0-1,1.784v5.258A2.1,2.1,0,0,0,26.278,21.7a13.4,13.4,0,0,1-1.161,2.936,9.886,9.886,0,0,1-1.568,2.18,2.532,2.532,0,1,0,.838,1.119l.129-.12a13.3,13.3,0,0,0,3.142-5.956,2.1,2.1,0,0,0,1.633-2.046V14.556A2.1,2.1,0,0,0,27.827,12.562Z" fill="#e25f1b"/><path d="M170.044,250.245a1.2,1.2,0,1,0,1.2,1.2A1.195,1.195,0,0,0,170.044,250.245Z" transform="translate(-159.19 -233.784)" fill="#e25f1b"/><path d="M299.528,250.245a1.2,1.2,0,1,0,1.194,1.2A1.2,1.2,0,0,0,299.528,250.245Z" transform="translate(-281.264 -233.784)" fill="#e25f1b"/></g></svg>