<svg xmlns="http://www.w3.org/2000/svg" xmlns:xlink="http://www.w3.org/1999/xlink" width="22" height="19.654" viewBox="0 0 22 19.654"><defs><clipPath id="a"><rect width="22" height="19.654" transform="translate(0 0)" fill="#e25f1b"/></clipPath></defs><g transform="translate(0 0)" clip-path="url(#a)"><path d="M17.666,14.827a1,1,0,0,1-.769-1.641l1.968-2.359H12a1,1,0,0,1,0-2h6.865L16.9,6.467a1,1,0,0,1,1.538-1.28l3.322,3.986A1.027,1.027,0,0,1,21.9,9.4a.755.755,0,0,1,.038.093h0l0,0v0h0a.9.9,0,0,1,.036.135v0l0,0A1.079,1.079,0,0,1,22,9.826v0a1.079,1.079,0,0,1-.018.188l0,0v0a.9.9,0,0,1-.036.135h0l0,0v0a.755.755,0,0,1-.038.093,1.027,1.027,0,0,1-.146.226l-3.322,3.987a1,1,0,0,1-.769.359" fill="#e25f1b"/><path d="M11,19.654c-.082,0-.165,0-.249-.01l-8-.668A3.018,3.018,0,0,1,0,15.987V3.667A3.017,3.017,0,0,1,2.75.677l8-.666A2.989,2.989,0,0,1,14,3V4.827a1,1,0,0,1-2,0V3a1,1,0,0,0-1-1L2.917,2.67a1.007,1.007,0,0,0-.917,1v12.32a1.007,1.007,0,0,0,.917,1l8,.667A1,1,0,0,0,12,16.737l0-1.91a1,1,0,0,1,2,0v1.826c0,.085,0,.17-.011.254A3,3,0,0,1,11,19.654" fill="#e25f1b"/></g></svg>