<svg xmlns="http://www.w3.org/2000/svg" width="18.633" height="15.246" viewBox="0 0 18.633 15.246"><g transform="translate(-1 -3)"><path d="M3.541,3H17.093a2.544,2.544,0,0,1,2.541,2.541V15.7a2.544,2.544,0,0,1-2.541,2.541H3.541A2.544,2.544,0,0,1,1,15.7V5.541A2.544,2.544,0,0,1,3.541,3ZM17.093,16.552a.848.848,0,0,0,.847-.847V5.541a.848.848,0,0,0-.847-.847H3.541a.848.848,0,0,0-.847.847V15.7a.848.848,0,0,0,.847.847Z" transform="translate(0)" fill="#e25f1b"/><path d="M10.317,14.519a4.25,4.25,0,0,1-2.646-.928L1.318,8.508A.847.847,0,0,1,2.376,7.186l6.353,5.083a2.527,2.527,0,0,0,3.175,0l6.353-5.083a.847.847,0,0,1,1.058,1.323l-6.353,5.083A4.25,4.25,0,0,1,10.317,14.519Z" transform="translate(0 -0.612)" fill="#e25f1b"/></g></svg>