<svg xmlns="http://www.w3.org/2000/svg" width="31.365" height="22" viewBox="0 0 31.365 22"><g transform="translate(0 -76.438)"><path d="M29.949,77.99a.875.875,0,0,0-.427-.428,8.673,8.673,0,0,0-1.357-.477,18.3,18.3,0,0,0-2.608-.476,27.949,27.949,0,0,0-3.136-.171,26.378,26.378,0,0,0-4.075.3,16.364,16.364,0,0,0-1.67.348,9.677,9.677,0,0,0-.993.324,9.605,9.605,0,0,0-.994-.324,18.259,18.259,0,0,0-2.607-.476,27.975,27.975,0,0,0-3.137-.171,26.378,26.378,0,0,0-4.075.3,16.379,16.379,0,0,0-1.669.348,8.72,8.72,0,0,0-1.358.477.874.874,0,0,0-.426.428C.754,78.155,0,78.465,0,79.016V94.969a2.779,2.779,0,0,0,2.779,2.779h11.2v.145a.544.544,0,0,0,.544.546h2.324a.544.544,0,0,0,.544-.546v-.145h11.2a2.779,2.779,0,0,0,2.779-2.779V79.016C31.365,78.465,30.611,78.155,29.949,77.99Zm-15.137,16.6-.123-.036a18.127,18.127,0,0,0-2.607-.476,27.981,27.981,0,0,0-3.137-.171,26.5,26.5,0,0,0-4.075.3,16.391,16.391,0,0,0-1.669.348l-.123.036V78.944q.264-.092.576-.176a16.34,16.34,0,0,1,2.352-.427,25.935,25.935,0,0,1,2.939-.16,24.818,24.818,0,0,1,3.8.277,14.478,14.478,0,0,1,1.488.31q.313.085.576.176Zm13.474,0-.122-.036a18.166,18.166,0,0,0-2.608-.476,27.951,27.951,0,0,0-3.136-.171,26.5,26.5,0,0,0-4.075.3,16.36,16.36,0,0,0-1.67.348l-.122.036V78.944q.263-.092.576-.176a16.277,16.277,0,0,1,2.351-.427,25.951,25.951,0,0,1,2.94-.16,24.837,24.837,0,0,1,3.8.277,14.53,14.53,0,0,1,1.488.31c.208.056.4.115.575.176Z" fill="#e2601d"/></g></svg>