<svg xmlns="http://www.w3.org/2000/svg" width="17.756" height="23.158" viewBox="0 0 17.756 23.158"><g transform="translate(-59.712 0.001)"><path d="M61.3.981C59.708,2.013,59.4,5.238,60,7.867a23.748,23.748,0,0,0,3.14,7.38,24.663,24.663,0,0,0,5.458,5.877c2.156,1.621,5.228,2.651,6.82,1.619a8.058,8.058,0,0,0,2.055-2.2l-.855-1.318L74.263,15.6c-.175-.269-1.27-.023-1.827.292a5.3,5.3,0,0,0-1.442,1.567c-.515.3-.946,0-1.847-.413C68.04,16.533,66.8,14.95,65.8,13.517c-.9-1.489-1.842-3.271-1.856-4.49-.011-.992-.106-1.506.376-1.855a5.3,5.3,0,0,0,2.018-.678c.515-.38,1.186-1.279,1.012-1.549L65,1.321,64.149,0A8.059,8.059,0,0,0,61.3.981Z" transform="translate(0 0)"/></g></svg>