<svg id="グループ_1152" data-name="グループ 1152" xmlns="http://www.w3.org/2000/svg" xmlns:xlink="http://www.w3.org/1999/xlink" width="21.001" height="26" viewBox="0 0 21.001 26">
  <defs>
    <clipPath id="clip-path">
      <rect id="長方形_2591" data-name="長方形 2591" width="21.001" height="26" fill="none"/>
    </clipPath>
  </defs>
  <g id="グループ_1152-2" data-name="グループ 1152" clip-path="url(#clip-path)">
    <path id="パス_235" data-name="パス 235" d="M16.672,0H7.432l-.47.473L.47,7.013,0,7.486V21.638A4.352,4.352,0,0,0,4.331,26H16.672A4.351,4.351,0,0,0,21,21.638V4.362A4.35,4.35,0,0,0,16.672,0" fill="#fff"/>
    <path id="パス_236" data-name="パス 236" d="M16.671,0H7.432l-.47.473L.47,7.013,0,7.486V21.638A4.352,4.352,0,0,0,4.331,26h12.34A4.351,4.351,0,0,0,21,21.638V4.362A4.35,4.35,0,0,0,16.671,0M19.4,21.638a2.736,2.736,0,0,1-2.725,2.747H4.331A2.737,2.737,0,0,1,1.6,21.638V8.155h4.22A2.281,2.281,0,0,0,8.1,5.867h0V1.615h8.575A2.736,2.736,0,0,1,19.4,4.362Z" fill="#3455bf"/>
    <path id="パス_237" data-name="パス 237" d="M8.1,16.5a.533.533,0,0,0-.773.025,1.233,1.233,0,0,1-1.007.53,1.036,1.036,0,0,1-.924-.5,1.833,1.833,0,0,1-.271-1.022,1.649,1.649,0,0,1,.452-1.26,1.029,1.029,0,0,1,.733-.288,1.017,1.017,0,0,1,.86.422c.051.065.08.1.082.1a.524.524,0,0,0,.752-.037.5.5,0,0,0,.144-.351.832.832,0,0,0-.341-.593A2.182,2.182,0,0,0,6.3,13a2.2,2.2,0,0,0-1.652.657,2.6,2.6,0,0,0-.686,1.874,2.59,2.59,0,0,0,.58,1.745,2.245,2.245,0,0,0,1.786.778,2.242,2.242,0,0,0,1.741-.7.708.708,0,0,0,.211-.471A.515.515,0,0,0,8.1,16.5" fill="#3455bf"/>
    <path id="パス_238" data-name="パス 238" d="M11.983,15.5a3.647,3.647,0,0,0-1.19-.518,3.129,3.129,0,0,1-.783-.3.355.355,0,0,1-.177-.3.327.327,0,0,1,.19-.306,1.076,1.076,0,0,1,.516-.107,1.013,1.013,0,0,1,.721.306.541.541,0,0,0,.8.029.482.482,0,0,0,.146-.347c0-.243-.174-.467-.517-.664A2.294,2.294,0,0,0,10.543,13a1.914,1.914,0,0,0-1.419.5,1.279,1.279,0,0,0-.383.926,1.155,1.155,0,0,0,.48,1.005,4.029,4.029,0,0,0,1.078.474,4.429,4.429,0,0,1,.827.316.422.422,0,0,1,.225.373.376.376,0,0,1-.21.343,1.13,1.13,0,0,1-.586.133,1.347,1.347,0,0,1-.977-.418c-.071-.07-.119-.116-.146-.138a.517.517,0,0,0-.718.089.491.491,0,0,0-.114.316c0,.261.193.511.59.762a2.5,2.5,0,0,0,1.365.376A2.3,2.3,0,0,0,11.9,17.7a1.35,1.35,0,0,0,.593-1.159,1.279,1.279,0,0,0-.505-1.042" fill="#3455bf"/>
    <path id="パス_239" data-name="パス 239" d="M16.679,13.1a.713.713,0,0,0-.246-.044.508.508,0,0,0-.514.356l-1.064,2.955L13.791,13.41a.5.5,0,0,0-.508-.36.686.686,0,0,0-.3.071.513.513,0,0,0-.311.474.454.454,0,0,0,.033.172l1.44,3.726a.747.747,0,0,0,1.428,0l1.44-3.727a.5.5,0,0,0,.029-.171.51.51,0,0,0-.361-.5" fill="#3455bf"/>
  </g>
</svg>
