<svg xmlns="http://www.w3.org/2000/svg" width="20.704" height="20.704" viewBox="0 0 20.704 20.704">
  <g id="グループ_1325" data-name="グループ 1325" transform="translate(-2933 -4410)">
    <g id="フロッピーディスクアイコン3" transform="translate(2933 4410)">
      <path id="パス_336" data-name="パス 336" d="M20.445,4.538,16.165.259A.888.888,0,0,0,15.541,0H3.112A3.109,3.109,0,0,0,0,3.111v14.48A3.109,3.109,0,0,0,3.112,20.7h14.48A3.109,3.109,0,0,0,20.7,17.592V5.163A.889.889,0,0,0,20.445,4.538Z" fill="#fff"/>
    </g>
    <g id="フロッピーディスクアイコン3-2" data-name="フロッピーディスクアイコン3" transform="translate(2933 4410)">
      <path id="パス_336-2" data-name="パス 336" d="M20.445,4.538,16.165.259A.888.888,0,0,0,15.541,0H3.112A3.109,3.109,0,0,0,0,3.111v14.48A3.109,3.109,0,0,0,3.112,20.7h14.48A3.109,3.109,0,0,0,20.7,17.592V5.163A.889.889,0,0,0,20.445,4.538ZM11.314,1.783H13.4V4.351H11.314Zm7.624,15.808a1.345,1.345,0,0,1-1.346,1.346H3.112a1.336,1.336,0,0,1-.523-.106,1.351,1.351,0,0,1-.763-.84,1.334,1.334,0,0,1-.06-.4V3.111a1.34,1.34,0,0,1,.105-.523,1.356,1.356,0,0,1,.489-.593,1.323,1.323,0,0,1,.351-.169,1.336,1.336,0,0,1,.4-.06H5.724V5.377H14.98V1.766h.2l3.762,3.762V17.592Z" fill="#5f9e20"/>
      <rect id="長方形_2704" data-name="長方形 2704" width="11.584" height="7.811" transform="translate(4.56 8.907)" fill="#5f9e20"/>
    </g>
  </g>
</svg>
