<svg xmlns="http://www.w3.org/2000/svg" width="21" height="26" viewBox="0 0 21 26"><g transform="translate(-351 -679)"><path d="M64.377,0h-9.24l-.47.473-6.492,6.54-.47.473V21.638A4.351,4.351,0,0,0,52.036,26H64.377a4.351,4.351,0,0,0,4.329-4.362V4.362A4.35,4.35,0,0,0,64.377,0Z" transform="translate(303.294 679)" fill="#fff"/><g transform="translate(351 679)"><path d="M64.377,0h-9.24l-.47.473-6.492,6.54-.47.473V21.638A4.351,4.351,0,0,0,52.036,26H64.377a4.351,4.351,0,0,0,4.329-4.362V4.362A4.35,4.35,0,0,0,64.377,0ZM67.1,21.638a2.737,2.737,0,0,1-2.726,2.747H52.036a2.737,2.737,0,0,1-2.727-2.747V8.155h4.22A2.281,2.281,0,0,0,55.8,5.866V1.615h8.575A2.737,2.737,0,0,1,67.1,4.362Z" transform="translate(-47.706 0)" fill="#f95c5c"/><path d="M136.629,252.785h-1.454a.416.416,0,0,0-.443.45v3.759a.509.509,0,1,0,1.017,0v-1.142a.037.037,0,0,1,.042-.042h.838a1.518,1.518,0,1,0,0-3.025Zm-.063,2.146h-.775a.037.037,0,0,1-.042-.041v-1.184a.037.037,0,0,1,.042-.042h.775a.635.635,0,1,1,0,1.267Z" transform="translate(-130.355 -239.959)" fill="#f95c5c"/><path d="M221.194,252.785H220.08a.416.416,0,0,0-.443.45v3.814a.411.411,0,0,0,.443.443h1.114c1,0,1.627-.318,1.876-1.087a5.851,5.851,0,0,0,0-2.534C222.821,253.1,222.2,252.785,221.194,252.785Zm.9,3.267c-.118.374-.457.533-.928.533h-.47a.037.037,0,0,1-.042-.042v-2.81a.037.037,0,0,1,.042-.042h.47c.471,0,.81.159.928.533a5.1,5.1,0,0,1,0,1.828Z" transform="translate(-210.989 -239.958)" fill="#f95c5c"/><path d="M310.382,252.785H308.1a.416.416,0,0,0-.443.45v3.759a.51.51,0,1,0,1.018,0v-1.343a.036.036,0,0,1,.041-.041h1.329a.437.437,0,1,0,0-.872h-1.329a.037.037,0,0,1-.041-.042v-.99a.036.036,0,0,1,.041-.042h1.668a.441.441,0,1,0,0-.879Z" transform="translate(-294.577 -239.959)" fill="#f95c5c"/></g></g></svg>