<svg xmlns="http://www.w3.org/2000/svg" width="35" height="17" viewBox="0 0 35 17"><g transform="translate(-4018 -2928)"><rect width="35" height="17" rx="3" transform="translate(4018 2928)" fill="#ff2654"/><path d="M7.32-7.788c-.684-.564-1.992-1.536-3-2.208l-.588.636a35.843,35.843,0,0,1,3,2.292ZM1.8-6.42A11.761,11.761,0,0,1,.432-2.472l.828.348A13.175,13.175,0,0,0,2.64-6.216ZM5.448-.06c-.684,0-.816-.108-.816-.672V-2.04a21.5,21.5,0,0,0,5.724-6.912l-.888-.36A19.73,19.73,0,0,1,4.632-3.168v-3.96H3.708v4.7A17.5,17.5,0,0,1,.444-.48a4.551,4.551,0,0,1,.576.7,21.213,21.213,0,0,0,2.688-1.56v.6c0,1.236.372,1.56,1.668,1.56H7.788c1.3,0,1.6-.648,1.728-2.772a2.6,2.6,0,0,1-.876-.4C8.556-.444,8.448-.06,7.752-.06Zm3.4-5.592A16.593,16.593,0,0,1,10.752-1.8l.84-.408a15.525,15.525,0,0,0-1.956-3.8Zm13.272-.084H18.1V-6.888h4.02Zm0,1.824H18.1V-5.088h4.02Zm0,1.824H18.1V-3.264h4.02Zm-4.86-5.5v6.192h5.736V-7.584H20.16c.12-.336.24-.72.36-1.092h2.892v-.78H16.7v.78h2.8c-.06.348-.156.744-.24,1.092Zm-1.74-2.244A10.652,10.652,0,0,1,12.5-7.536a3.032,3.032,0,0,1,.66.636,13.113,13.113,0,0,0,3.192-2.58Zm.216,3.336A9.5,9.5,0,0,1,12.66-4.044a3.934,3.934,0,0,1,.66.684,11.562,11.562,0,0,0,3.228-2.784Zm.252,3.336a8.345,8.345,0,0,1-3.516,3.1A3.145,3.145,0,0,1,13.1.648a9.7,9.7,0,0,0,3.72-3.48ZM18.6-1.128A8.923,8.923,0,0,1,15.768.288a6.708,6.708,0,0,1,.564.636,11.144,11.144,0,0,0,3.036-1.56ZM20.616-.6A16,16,0,0,1,22.992.936l.7-.54A15.447,15.447,0,0,0,21.276-1.08Z" transform="translate(4023.568 2940.996)" fill="#fff"/></g></svg>