<svg xmlns="http://www.w3.org/2000/svg" width="22.827" height="24.22" viewBox="0 0 22.827 24.22"><path d="M5.605-1A6.606,6.606,0,1,1-1,5.606,6.613,6.613,0,0,1,5.605-1Zm0,11.009a4.4,4.4,0,1,0-4.4-4.4A4.409,4.409,0,0,0,5.605,10.009Z" transform="translate(5.111 1)"/><path d="M18.487,24.009H5.569A3.3,3.3,0,0,1,2.291,20.3l.429-3.439A4.41,4.41,0,0,1,7.09,13h.388a1.1,1.1,0,0,1,0,2.2H7.091a2.2,2.2,0,0,0-2.186,1.929L4.476,20.57a1.1,1.1,0,0,0,1.093,1.238H18.487a1.1,1.1,0,0,1,0,2.2Z" transform="translate(-2.266 0.211)"/><path d="M18.578,19.606a1.1,1.1,0,0,1-.731-.278l-2.477-2.2a1.1,1.1,0,1,1,1.463-1.646l1.676,1.49,3.4-3.622a1.1,1.1,0,1,1,1.606,1.506l-4.128,4.4A1.1,1.1,0,0,1,18.578,19.606Z" transform="translate(-0.98 0.211)"/></svg>