<svg xmlns="http://www.w3.org/2000/svg" xmlns:xlink="http://www.w3.org/1999/xlink" width="15.94" height="14.496" viewBox="0 0 15.94 14.496"><defs><clipPath id="a"><rect width="15.94" height="14.496" transform="translate(0 0)" fill="none"/></clipPath></defs><g transform="translate(0 0)" clip-path="url(#a)"><path d="M7.97,10.164a.748.748,0,0,1-.288-.058.725.725,0,0,1-.242-.162L4.552,7.057A.75.75,0,0,1,5.613,6L7.22,7.6V.75a.75.75,0,0,1,1.5,0V7.6L10.327,6a.75.75,0,0,1,1.061,1.061L8.5,9.944a.725.725,0,0,1-.242.162.748.748,0,0,1-.288.058" fill="#070203"/><path d="M13.341,14.5H2.6A2.189,2.189,0,0,1,.471,12.834L.023,11.04a.75.75,0,1,1,1.455-.363l.448,1.794A.691.691,0,0,0,2.6,13H13.341a.694.694,0,0,0,.673-.526l.448-1.793a.75.75,0,1,1,1.455.363l-.448,1.794A2.192,2.192,0,0,1,13.341,14.5" fill="#070203"/></g></svg>