<svg xmlns="http://www.w3.org/2000/svg" width="12.588" height="12.588" viewBox="0 0 12.588 12.588"><g transform="translate(-2 -2)"><path d="M13.129,7.979A.629.629,0,0,1,12.684,6.9L17.4,2.184a.629.629,0,1,1,.89.89L13.574,7.8A.627.627,0,0,1,13.129,7.979Z" transform="translate(-3.891)"/><path d="M18.776,6.406a.629.629,0,0,1-.629-.629V3.259H15.629a.629.629,0,0,1,0-1.259h3.147a.629.629,0,0,1,.629.629V5.776A.629.629,0,0,1,18.776,6.406Z" transform="translate(-4.818)"/><path d="M12.7,14.588H3.888A1.89,1.89,0,0,1,2,12.7V3.888A1.89,1.89,0,0,1,3.888,2H7.035a.629.629,0,0,1,0,1.259H3.888a.63.63,0,0,0-.629.629V12.7a.63.63,0,0,0,.629.629H12.7a.63.63,0,0,0,.629-.629V9.553a.629.629,0,0,1,1.259,0V12.7A1.89,1.89,0,0,1,12.7,14.588Z"/></g></svg>