<svg xmlns="http://www.w3.org/2000/svg" width="28" height="28" viewBox="0 0 28 28">
  <g id="グループ_1791" data-name="グループ 1791" transform="translate(-341.463 -243.366)">
    <circle id="楕円形_8" data-name="楕円形 8" cx="14" cy="14" r="14" transform="translate(341.463 243.366)" fill="#f8bf3a"/>
    <g id="グループ_1790" data-name="グループ 1790" transform="translate(349.064 245.903)">
      <g id="グループ_1789" data-name="グループ 1789" transform="translate(0 0)">
        <path id="パス_372" data-name="パス 372" d="M20.583,24.1H14.457a3.192,3.192,0,0,1-3.168-3.588l.718-5.739A4.319,4.319,0,0,1,16.285,11h2.469a4.319,4.319,0,0,1,4.28,3.778l.717,5.739A3.192,3.192,0,0,1,20.583,24.1Zm-4.3-11.2A2.411,2.411,0,0,0,13.9,15.014l-.718,5.739A1.288,1.288,0,0,0,14.457,22.2v0h6.125a1.288,1.288,0,0,0,1.278-1.447l-.717-5.739A2.411,2.411,0,0,0,18.755,12.9Z" transform="translate(-11.265 -1.184)" fill="#fff"/>
        <path id="楕円形_10" data-name="楕円形 10" d="M3.312-1A4.312,4.312,0,1,1-1,3.312,4.317,4.317,0,0,1,3.312-1Zm0,6.72A2.408,2.408,0,1,0,.9,3.312,2.41,2.41,0,0,0,3.312,5.72Z" transform="translate(2.944 1)" fill="#fff"/>
      </g>
    </g>
  </g>
</svg>
